<svg width="36" height="50" viewBox="0 0 36 50" fill="none" xmlns="http://www.w3.org/2000/svg">
<path d="M23.8447 50H11.9701V38.4507H5.0086C3.28578 38.4507 1.70334 37.5957 0.778123 36.1728C-0.115189 34.7882 -0.249186 33.0653 0.42718 31.5722L13.3292 2.92241C14.1395 1.11664 15.8943 0 17.9042 0C19.9142 0 21.6689 1.12302 22.4792 2.92241L35.3812 31.5659C36.0576 33.0653 35.9236 34.7882 35.0303 36.1664C34.1051 37.5957 32.529 38.4444 30.7998 38.4444H23.8384V49.9936L23.8447 50ZM15.8815 46.0886H19.9269V34.5393H30.8062C31.3677 34.5393 31.6485 34.1947 31.7442 34.048C31.8463 33.8885 31.9867 33.5694 31.8144 33.1738L18.9124 4.53037C18.6635 3.97524 18.1212 3.91782 17.9042 3.91782C17.6873 3.91782 17.1449 3.97524 16.896 4.53037L3.99405 33.1738C3.81539 33.5694 3.96215 33.8885 4.06424 34.0416C4.15995 34.1884 4.44071 34.5329 5.00222 34.5329H15.8815V46.0822V46.0886Z" fill="white"/>
</svg>
