<svg width="573" height="522" viewBox="0 0 573 522" fill="none" xmlns="http://www.w3.org/2000/svg">
<path d="M261.911 369.34L161.346 120.651C153.058 100.337 125.983 100.337 117.694 120.651L17.1291 369.34C10.4985 386.575 21.5496 405.042 38.6788 405.042H108.301V505.38H170.187V405.042H239.809C256.938 405.042 268.542 385.96 261.911 369.34Z" fill="white" fill-opacity="0.1"/>
<path d="M185.659 522H93.3819V422.278H39.2314C25.9701 422.278 13.2613 414.892 6.0781 402.58C-1.10512 390.269 -2.21023 375.495 3.31532 362.568L103.88 113.88C109.959 98.4906 123.772 88.6415 139.797 88.6415C155.821 88.6415 169.082 98.4906 175.713 113.88L276.278 362.568C281.803 375.495 280.698 390.269 273.515 402.58C266.332 414.892 254.176 422.278 240.362 422.278H186.211L185.659 522ZM123.772 488.144H155.268V387.807H239.809C244.23 387.807 246.44 384.729 246.992 383.498C247.545 382.267 248.65 379.189 247.545 376.111L147.532 127.422C145.322 122.498 141.454 121.882 139.797 121.882C138.139 121.882 133.718 122.498 132.061 127.422L30.9431 376.111C29.838 379.189 30.3905 382.267 31.4956 383.498C32.6008 385.344 34.811 387.807 39.2314 387.807H123.772V488.144Z" fill="#008080" fill-opacity="0.1"/>
<path d="M555.318 369.34L454.753 120.651C446.465 100.337 419.389 100.337 411.101 120.651L311.089 369.34C304.458 386.575 315.509 405.042 332.638 405.042H402.26V505.38H464.146V405.042H533.768C550.898 405.042 562.501 385.96 555.318 369.34Z" fill="white" fill-opacity="0.1"/>
<path d="M479.618 522H386.789V422.278H332.638C319.377 422.278 306.668 414.892 299.485 402.58C292.302 390.269 291.197 375.495 296.722 362.568L397.287 113.88C403.918 98.4906 417.179 88.6415 433.203 88.6415C449.227 88.6415 462.489 98.4906 469.119 113.88L569.684 362.568C574.657 375.495 574.105 390.269 566.922 402.58C559.738 414.892 547.582 422.278 533.768 422.278H479.618V522ZM417.179 488.144H448.675V387.807H533.216C537.636 387.807 539.846 384.729 540.399 383.498C540.952 382.267 542.057 379.189 540.952 376.111L440.939 127.422C439.281 122.498 434.861 121.882 433.203 121.882C431.546 121.882 427.125 122.498 425.467 127.422L324.902 376.111C323.797 379.189 324.902 382.267 325.455 383.498C326.008 384.729 328.218 387.807 332.638 387.807H417.179V488.144Z" fill="#008080" fill-opacity="0.1"/>
<path d="M422.153 312.092L310.536 35.7028C301.143 12.9269 271.305 12.9269 261.911 35.7028L150.295 312.092C142.559 330.559 155.268 352.104 174.608 352.104H251.965V463.521H321.035V352.104H398.393C417.18 352.104 429.888 331.174 422.153 312.092Z" fill="white" fill-opacity="0.1"/>
<path d="M337.612 482.604H234.836V371.186H174.608C159.689 371.186 145.875 363.184 138.139 349.026C130.403 335.484 129.298 318.863 135.376 304.705L246.992 28.316C254.176 11.0802 269.095 0 286.776 0C304.458 0 319.377 11.0802 326.56 28.316L438.177 304.705C444.255 318.863 442.597 335.484 434.861 349.026C427.126 362.568 413.312 371.186 398.393 371.186H337.612V482.604ZM269.095 444.439H303.906V333.021H397.84C402.813 333.021 405.023 329.943 406.128 328.097C407.234 326.866 408.339 323.172 406.681 319.479L295.065 43.7052C292.855 38.1651 288.434 37.5495 286.224 37.5495C284.014 37.5495 279.593 38.1651 277.383 43.7052L165.767 320.094C164.109 323.788 165.767 326.866 166.319 328.712C167.424 329.943 169.635 333.637 174.608 333.637H268.542C269.095 333.021 269.095 444.439 269.095 444.439Z" fill="#008080" fill-opacity="0.1"/>
</svg>
