<svg width="75" height="67" viewBox="0 0 75 67" fill="none" xmlns="http://www.w3.org/2000/svg">
<path d="M10.3833 29.6667L17.4292 22.6208C18.109 21.941 18.449 21.0757 18.449 20.025C18.449 18.9743 18.109 18.109 17.4292 17.4292C16.7493 16.7493 15.884 16.4094 14.8333 16.4094C13.7826 16.4094 12.9174 16.7493 12.2375 17.4292L2.59583 27.0708C1.85417 27.8125 1.48333 28.6778 1.48333 29.6667C1.48333 30.6556 1.85417 31.5208 2.59583 32.2625L12.2375 41.9042C12.9174 42.584 13.7826 42.924 14.8333 42.924C15.884 42.924 16.7493 42.584 17.4292 41.9042C18.109 41.2243 18.449 40.359 18.449 39.3083C18.449 38.2576 18.109 37.3924 17.4292 36.7125L10.3833 29.6667ZM63.7833 29.6667L56.7375 36.7125C56.0576 37.3924 55.7177 38.2576 55.7177 39.3083C55.7177 40.359 56.0576 41.2243 56.7375 41.9042C57.4174 42.584 58.2826 42.924 59.3333 42.924C60.384 42.924 61.2493 42.584 61.9292 41.9042L71.5708 32.2625C72.3125 31.5208 72.6833 30.6556 72.6833 29.6667C72.6833 28.6778 72.3125 27.8125 71.5708 27.0708L61.9292 17.4292C61.2493 16.7493 60.384 16.4094 59.3333 16.4094C58.2826 16.4094 57.4174 16.7493 56.7375 17.4292C56.0576 18.109 55.7177 18.9743 55.7177 20.025C55.7177 21.0757 56.0576 21.941 56.7375 22.6208L63.7833 29.6667ZM0 11.125V7.41667C0 5.37708 0.726834 3.63169 2.1805 2.1805C3.63417 0.729306 5.37956 0.00247222 7.41667 0H66.75C68.7896 0 70.5362 0.726834 71.9899 2.1805C73.4435 3.63417 74.1691 5.37956 74.1667 7.41667V11.125C74.1667 12.1757 73.8107 13.057 73.0987 13.769C72.3867 14.481 71.5066 14.8358 70.4583 14.8333C69.4101 14.8309 68.53 14.4749 67.818 13.7653C67.106 13.0558 66.75 12.1757 66.75 11.125V7.41667H7.41667V11.125C7.41667 12.1757 7.06067 13.057 6.34867 13.769C5.63667 14.481 4.75656 14.8358 3.70833 14.8333C2.66011 14.8309 1.78 14.4749 1.068 13.7653C0.356 13.0558 0 12.1757 0 11.125ZM25.9583 66.75C24.9076 66.75 24.0275 66.394 23.318 65.682C22.6085 64.97 22.2525 64.0899 22.25 63.0417V59.3333H7.41667C5.37708 59.3333 3.63169 58.6077 2.1805 57.1565C0.729306 55.7053 0.00247222 53.9587 0 51.9167V48.301C0 47.2503 0.356 46.3851 1.068 45.7052C1.78 45.0253 2.66011 44.6854 3.70833 44.6854C4.75656 44.6854 5.6379 45.0402 6.35238 45.7497C7.06685 46.4592 7.42161 47.3406 7.41667 48.3937V51.9167H66.75V48.301C66.75 47.2503 67.106 46.3851 67.818 45.7052C68.53 45.0253 69.4101 44.6854 70.4583 44.6854C71.5066 44.6854 72.3879 45.0402 73.1024 45.7497C73.8168 46.4592 74.1716 47.3406 74.1667 48.3937V51.9167C74.1667 53.9563 73.4411 55.7029 71.9899 57.1565C70.5387 58.6102 68.7921 59.3358 66.75 59.3333H51.9167V63.0417C51.9167 64.0924 51.5607 64.9737 50.8487 65.6857C50.1367 66.3977 49.2566 66.7525 48.2083 66.75H25.9583Z" fill="#008080"/>
</svg>
