<svg width="66" height="66" viewBox="0 0 66 66" fill="none" xmlns="http://www.w3.org/2000/svg">
<path d="M0 3.3C0 2.42479 0.347677 1.58542 0.966547 0.966547C1.58542 0.347677 2.42479 0 3.3 0C4.17521 0 5.01458 0.347677 5.63345 0.966547C6.25232 1.58542 6.6 2.42479 6.6 3.3V37.5045L13.9161 31.4127L15.0183 30.5349C17.6121 28.5879 20.3313 27.3471 23.3079 27.5319C26.6772 27.7497 29.4591 29.7429 31.9539 32.2377L31.977 32.2575L32.802 33.0462C34.6368 34.6929 35.8017 35.0592 36.5739 35.0724C37.4979 35.0856 38.8839 34.6038 41.2368 32.5446L60.5286 15.6651C61.1884 15.0946 62.0472 14.8085 62.9173 14.8693C63.7874 14.9302 64.5981 15.333 65.172 15.9899C65.746 16.6467 66.0365 17.504 65.9802 18.3744C65.9239 19.2448 65.5252 20.0576 64.8714 20.6349L45.5796 37.5111C42.8802 39.8739 39.9168 41.7153 36.4914 41.6691C33.4554 41.6328 30.8055 40.1346 28.3503 37.917L27.3075 36.927L27.2877 36.9039C25.1262 34.7424 23.8062 34.1781 22.8921 34.122C22.1199 34.0725 20.9451 34.3431 19.0146 35.7885L18.1401 36.4815L6.6198 46.0779C6.6396 47.6058 6.6792 48.8796 6.7683 49.9785C6.9333 51.9783 7.2369 53.1267 7.6791 53.9946L8.0586 54.6744C9.0123 56.2254 10.3752 57.4893 12.0054 58.3209L12.3453 58.4826C13.1736 58.839 14.2725 59.0898 16.0182 59.2317C18.0543 59.4 20.6712 59.4 24.42 59.4H62.7L63.0366 59.4165C63.8507 59.4982 64.6053 59.8794 65.1542 60.4861C65.7031 61.0929 66.007 61.8818 66.007 62.7C66.007 63.5181 65.7031 64.3071 65.1542 64.9139C64.6053 65.5206 63.8507 65.9018 63.0366 65.9835L62.7 66H24.42C20.7801 66 17.8497 66.0033 15.4803 65.8086C13.3782 65.637 11.4939 65.3004 9.7482 64.5513L9.009 64.2015C6.10283 62.7214 3.70049 60.4132 2.1054 57.5685L1.7985 56.991C0.8019 55.0341 0.3861 52.9221 0.1914 50.5197C0.0657407 48.637 0.00740359 46.7504 0.0165004 44.8635C-0.00346172 44.6605 -0.004567 44.4562 0.0131998 44.253C0.00439983 43.4082 0 42.5172 0 41.58V3.3Z" fill="#008080"/>
</svg>
