<svg width="85" height="73" viewBox="0 0 85 73" fill="none" xmlns="http://www.w3.org/2000/svg">
<path d="M42.0122 60.9977V68.4171M42.0122 68.4171H27.7525M42.0122 68.4171H56.2719M67.6961 4H16.3283C13.0586 4 9.92287 5.29887 7.61087 7.61087C5.29887 9.92287 4 13.0586 4 16.3283V48.6694C4 51.9391 5.29887 55.0748 7.61087 57.3868C9.92287 59.6988 13.0586 60.9977 16.3283 60.9977H67.6961C70.9657 60.9977 74.1015 59.6988 76.4135 57.3868C78.7255 55.0748 80.0244 51.9391 80.0244 48.6694V16.3283C80.0244 13.0586 78.7255 9.92287 76.4135 7.61087C74.1015 5.29887 70.9657 4 67.6961 4Z" stroke="#008080" stroke-width="8" stroke-linecap="round" stroke-linejoin="round"/>
</svg>
